<svg width="1080" height="805" viewBox="0 0 1080 805" fill="none" xmlns="http://www.w3.org/2000/svg">
<path d="M1035 790H53C46.4 790 41 784.6 41 778V731C41 724.4 46.4 719 53 719H1035C1041.6 719 1047 724.4 1047 731V778C1047 784.6 1041.6 790 1035 790Z" fill="#F7F7F7"/>
<path d="M552 736C736.463 736 886 586.463 886 402C886 217.537 736.463 68 552 68C367.537 68 218 217.537 218 402C218 586.463 367.537 736 552 736Z" fill="#F3FAFF"/>
<path d="M966 637.9C973.1 619.8 980.3 599.7 973.6 581.5C972 577.1 969.5 572.4 971 567.9C973 561.8 981 559.7 983.6 553.9C986.6 547.5 981.9 540.1 983.1 533.2C984.3 526.2 991.2 521.6 997.9 519.1C1004.6 516.6 1011.9 515 1017.3 510.4C1027.6 501.4 1026.4 485.3 1024.1 471.7C1021.8 458.2 1020.1 442.2 1030 432.7C1011.8 436.2 993.2 439.8 977.4 449.4C961.6 459 949 476 949.9 494.5C950.4 503.8 954 513.7 949.8 521.9C945.2 530.8 932.9 534.3 929.8 543.8C926.2 554.7 936.9 564.7 941.1 575.4C945.1 585.5 943.2 596.8 944.1 607.5C945 618.3 950.6 630.5 961.3 632.1L966 637.9Z" fill="#EEE9DA"/>
<path opacity="0.31" d="M966 637.9C973.1 619.8 980.3 599.7 973.6 581.5C972 577.1 969.5 572.4 971 567.9C973 561.8 981 559.7 983.6 553.9C986.6 547.5 981.9 540.1 983.1 533.2C984.3 526.2 991.2 521.6 997.9 519.1C1004.6 516.6 1011.9 515 1017.3 510.4C1027.6 501.4 1026.4 485.3 1024.1 471.7C1021.8 458.2 1020.1 442.2 1030 432.7C1011.8 436.2 993.2 439.8 977.4 449.4C961.6 459 949 476 949.9 494.5C950.4 503.8 954 513.7 949.8 521.9C945.2 530.8 932.9 534.3 929.8 543.8C926.2 554.7 936.9 564.7 941.1 575.4C945.1 585.5 943.2 596.8 944.1 607.5C945 618.3 950.6 630.5 961.3 632.1L966 637.9Z" fill="white"/>
<path d="M958.7 614.2C958.5 561.6 968.7 451.5 1029.4 433.1" stroke="white" stroke-width="0.75" stroke-miterlimit="10" stroke-linecap="round"/>
<path d="M923.7 633.5C912.9 613.3 901.7 590.8 907 568.5C908.3 563.1 910.5 557.3 908.2 552.2C905.1 545.4 895.4 543.9 891.5 537.5C887.2 530.5 891.6 521.1 889.2 513.2C886.8 505.1 878.1 500.8 870 498.7C861.9 496.7 853.1 495.9 846.1 491.1C832.8 482 832 462.9 832.8 446.8C833.6 430.7 833.4 411.7 820.5 402C842.3 403.6 864.6 405.3 884.4 414.4C904.2 423.5 921.4 441.7 922.8 463.5C923.5 474.4 920.6 486.5 926.7 495.6C933.3 505.4 948.2 507.8 953.2 518.5C958.9 530.8 947.8 543.9 944.3 557C941.1 569.3 944.8 582.3 945.2 595C945.6 607.7 940.7 622.8 928.4 626.2L923.7 633.5Z" fill="#EEE9DA"/>
<path d="M929 604.7C922 543 895 415.5 821.3 402.4" stroke="white" stroke-width="0.75" stroke-miterlimit="10" stroke-linecap="round"/>
<path d="M992 752H897C890.4 752 885 746.6 885 740L877 603C877 596.4 882.4 591 889 591H1000C1006.6 591 1012 596.4 1012 603L1004 740C1004 746.6 998.6 752 992 752Z" fill="#CCE9FF"/>
<path d="M130.545 316.904L191.845 307.609L233.521 582.467L172.222 591.762L130.545 316.904Z" fill="#EEE9DA"/>
<path d="M161.174 312.283L191.823 307.635L233.5 582.494L202.85 587.141L161.174 312.283Z" fill="#EEE9DA"/>
<path d="M191.9 307.9L130.6 317.2L145 280.3L153.2 259.5L167.2 277L191.9 307.9Z" fill="#FFEBC2"/>
<path d="M167.2 277L145 280.3L153.2 259.5L167.2 277Z" fill="#0E538C"/>
<path d="M241.115 244.681L302.867 250.211L278.072 527.099L216.32 521.569L241.115 244.681Z" fill="#EEE9DA"/>
<path d="M272.051 247.469L302.927 250.233L278.132 527.121L247.256 524.357L272.051 247.469Z" fill="#EEE9DA"/>
<path d="M302.9 250.5L241.1 245L263.9 212.6L276.8 194.3L286.2 214.6L302.9 250.5Z" fill="#FFEBC2"/>
<path d="M286.2 214.6L263.9 212.6L276.8 194.3L286.2 214.6Z" fill="#0E538C"/>
<path d="M343.5 753H99.9L68 376H363L343.5 753Z" fill="#CCE9FF"/>
<path opacity="0.5" d="M215.5 753H343.5L363 376H215.5V753Z" fill="#CCE9FF"/>
<path d="M269 646.6H888V731.7H269V646.6Z" fill="#FFEBC2"/>
<path d="M271.6 646.6V731.7H921V738.1C921 746 914.1 752.4 905.6 752.4H274.4C254.3 752.4 238 737.4 238 718.8V661.9C238 643.3 254.3 628.3 274.4 628.3H905.6C914.1 628.3 921 634.7 921 642.6V646.7H271.6V646.6Z" fill="#EEE9DA"/>
<path d="M269 684.5H888V731.6H269V684.5Z" fill="#FFEBC2"/>
<path d="M349 543H852V617H349V543Z" fill="#CCE9FF"/>
<path d="M349 543V617H871V622.6C871 629.5 865.4 635 858.6 635H351.2C335.1 635 322 621.9 322 605.8V556.3C322 540.2 335.1 527.1 351.2 527.1H858.6C865.4 527.1 871 532.7 871 539.5V543.1H349V543Z" fill="#2A94F4"/>
<path d="M566.4 291.1C559.5 282 558.9 269.5 565.4 260C570.6 252.4 574.1 243 573.7 236.1C572.9 223.7 565.2 212.3 554.7 205.5C540.9 196.5 522.5 195.2 507.6 202.2C492.7 209.2 481.9 224.2 480 240.5C478.6 252.2 481.3 265 475.3 275.2C470.9 282.5 462.8 286.8 454.8 289.7C446.7 292.5 438.2 294.4 430.8 298.7C423.4 303 417.1 310.4 417.2 319C417.3 325.5 421 331.5 421.4 337.9C422 347.3 415.4 355.6 408.4 361.8C401.3 368 393.2 373.4 388.4 381.5C380.5 394.9 384.2 413 394.2 425C404.2 437 419.2 443.7 434.2 447.6C475.2 458.4 518.4 451.4 560.7 450.7C573.8 450.5 587.2 450.9 599.9 447.6C612.6 444.3 625 436.7 630.3 424.7C635.7 412.7 633 398.1 625.8 387.2C618.6 376.3 607.3 368.4 595.4 362.8C586.8 358.7 577.6 355.5 570.6 349.1C563.6 342.7 559.5 331.8 564.2 323.5C566 320.3 569 317.8 570.7 314.6C574.1 308.4 572.7 300.5 568.9 294.5C568.2 293.5 567.4 292.4 566.4 291.1Z" fill="#0E538C"/>
<path d="M349 576H852V617H349V576Z" fill="#CCE9FF"/>
<path d="M576 471L638 515L714 672H700L615 533C615 533 586 534 576 525C566 516 508.5 477 508.5 477L576 471Z" fill="#0B4870"/>
<path d="M466.3 458.4C455 489 463 532 501 534C539 536 551 534 551 534L625 684H642L584 516L513.5 477L466.3 458.4Z" fill="#0E538C"/>
<path d="M524 284C534 297 558 333 567 373C576 413 601 471 601 471H572L544 376L518 287L524 284Z" fill="#4EA3FB"/>
<path d="M554.8 230.9C556.3 255.4 545.6 272.2 530.3 273C515 273.8 505 251.6 509.6 230.9C520.3 212.5 534.9 211 534.9 211H544.1L554.8 230.9Z" fill="#FFE3CA"/>
<path d="M544.6 216.3C541.8 224.9 535.6 232.3 527.6 236.5C519.6 240.7 510 241.7 501.3 239.1L523.1 208H541.8L559.7 222.2L557 238.5C550 233.2 544.6 216.3 544.6 216.3Z" fill="#0E538C"/>
<path d="M525.7 270.1C522.5 282.5 523.5 295.5 523.5 297.5C520.5 301.5 506.5 300.5 504.5 286.5C507.5 268.5 513.5 248.5 513.5 248.5L518.5 259.5L525.7 270.1Z" fill="#FFE3CA"/>
<path d="M506.5 275.9C494 280 452 299 450 303C453 314 468 477 468 477H536C536 477 527 387 532 381C537 375 553 354 551 351C549 348 523.6 283.5 523.6 283.5L506.5 275.9Z" fill="#2A94F4"/>
<path d="M450 303C440.2 310.5 399 378 412 414C425 450 467.5 471.2 467.5 471.2V451.4C467.5 451.4 433 424 435 404C437 384 461 343 461 343L450 303Z" fill="#4EA3FB"/>
<path d="M611.1 488.5H463.9C459.3 488.5 455.5 484.7 455.5 480.1L451.5 385.9C451.5 381.3 455.3 377.5 459.9 377.5H613.1C617.7 377.5 621.5 381.3 621.5 385.9L619.5 480.1C619.5 484.7 615.7 488.5 611.1 488.5Z" fill="#EEE9DA"/>
<path d="M639.6 684C649.5 686.2 662.9 697.1 669.3 702.7C670.6 703.8 669.8 706 668 706C657.7 705.8 634.4 704.7 629 700.1C622 694.1 624 684.1 624 684.1H639.6V684ZM713.8 671.6C722.6 674 734.2 684.2 740 689.7C741.3 690.9 740.3 693 738.6 692.9C728.9 692.2 708.1 690.3 703.4 685.8C697.2 680 699.5 670.9 699.5 670.9L713.8 671.6Z" fill="#1A87D8"/>
<path d="M537 448C545.284 448 552 441.284 552 433C552 424.716 545.284 418 537 418C528.716 418 522 424.716 522 433C522 441.284 528.716 448 537 448Z" fill="white"/>
<path d="M405 646L386 635L367 646V576H405V646ZM699.6 231.5C699.6 233.4 698.9 235.1 697.7 236.5C698.9 237.8 699.6 239.6 699.6 241.5V247.7C699.6 249 699.2 250.3 698.6 251.4C699.2 252.5 699.6 253.8 699.6 255.1V261.3C699.6 265.4 696.3 268.7 692.2 268.7H627.8C623.7 268.7 620.4 265.4 620.4 261.3V255C620.4 253.7 620.8 252.4 621.4 251.3C620.8 250.2 620.4 248.9 620.4 247.6V241.4C620.4 239.5 621.1 237.8 622.3 236.4C621.1 235.1 620.4 233.3 620.4 231.4V225.2C620.4 221.1 623.7 217.8 627.8 217.8H692.2C696.3 217.8 699.6 221.1 699.6 225.2V231.5ZM751 91.3C751 127.4 730 158.5 699.6 173.3V206.9C699.6 209.4 697.5 211.5 695 211.5H625C622.5 211.5 620.4 209.4 620.4 206.9V173.3C590 158.6 569 127.4 569 91.3C569 41 609.7 0.299988 660 0.299988C710.3 0.299988 751 41.1 751 91.3Z" fill="#BDCDD6" fill-opacity="0.79"/>
<path opacity="0.23" d="M691 237H630M691 251H630" stroke="#7F7F7F" stroke-width="2" stroke-miterlimit="10" stroke-linecap="round"/>
<path d="M675.6 102.5C674.5 101.5 672.9 101 671.2 101.2C669.1 101.4 667.1 102.6 665.8 104.3C664.7 105.8 664.1 107.6 663.8 109.3C662.9 108.8 661.9 108.3 661 107.7L660.7 107.5H659.4L659.1 107.7C658.1 108.3 657.2 108.8 656.3 109.3C656 107.6 655.4 105.8 654.3 104.3C653.1 102.6 651 101.4 648.9 101.2C647.2 101 645.7 101.5 644.5 102.5C643 103.9 642.5 105.9 643 108C643.8 110.8 646.1 113.1 648.8 113.6C650.5 113.9 652.1 113.8 653.8 113.4C656.3 145.9 657.3 178.8 656.6 211.3H659.6C660.3 178.7 659.3 145.7 656.8 113.2C656.8 112.9 656.8 112.6 656.7 112.3C657.9 111.8 659 111.2 660.1 110.5C661.2 111.1 662.3 111.8 663.5 112.3C663.5 112.6 663.5 112.9 663.4 113.2C660.9 145.7 659.9 178.7 660.6 211.3H663.6C662.9 178.8 663.9 145.8 666.4 113.4C668 113.8 669.7 114 671.4 113.6C674 113.1 676.4 110.8 677.2 108C677.6 105.9 677.1 103.9 675.6 102.5ZM649.3 110.8C647.8 110.5 646.3 109 645.8 107.3C645.6 106.6 645.5 105.5 646.4 104.8C646.9 104.3 647.6 104.2 648.1 104.2H648.5C649.7 104.3 651 105 651.8 106.1C652.7 107.3 653.2 108.8 653.4 110.5C652 110.9 650.7 111 649.3 110.8ZM674.2 107.3C673.7 109 672.3 110.5 670.7 110.8C669.4 111.1 668 110.9 666.7 110.5C667 108.8 667.4 107.3 668.3 106.1C669 105.1 670.3 104.4 671.6 104.2C672.2 104.1 673 104.2 673.7 104.8C674.4 105.5 674.3 106.6 674.2 107.3Z" fill="white"/>
<path d="M636 17C614 25 578 54 581 101" stroke="white" stroke-width="4" stroke-miterlimit="10" stroke-linecap="round"/>
<path d="M515.5 180C529.583 180 541 168.583 541 154.5C541 140.417 529.583 129 515.5 129C501.417 129 490 140.417 490 154.5C490 168.583 501.417 180 515.5 180Z" fill="#EEE9DA"/>
<path d="M788.5 82C794.851 82 800 76.8513 800 70.5C800 64.1487 794.851 59 788.5 59C782.149 59 777 64.1487 777 70.5C777 76.8513 782.149 82 788.5 82Z" fill="#EEE9DA"/>
<path d="M751 270C761.493 270 770 261.493 770 251C770 240.507 761.493 232 751 232C740.507 232 732 240.507 732 251C732 261.493 740.507 270 751 270Z" fill="#EEE9DA"/>
<path opacity="0.14" d="M405 646L386 635L367 646V576H405V646Z" fill="#0C0C0C"/>
</svg>
